<?xml version="1.0" encoding="utf-8"?>
<!-- Generator: Adobe Illustrator 23.0.0, SVG Export Plug-In . SVG Version: 6.00 Build 0)  -->
<svg version="1.1" id="Слой_1" xmlns="http://www.w3.org/2000/svg" xmlns:xlink="http://www.w3.org/1999/xlink" x="0px" y="0px"
	 viewBox="0 0 2560 2560" style="enable-background:new 0 0 2560 2560;" xml:space="preserve">
<style type="text/css">
	.st0{fill:#FFFFFF;}
</style>
<g transform="translate(0.000000,2560.000000) scale(0.100000,-0.100000)">
	<path class="st0" d="M3070,20626c-91-8-261-46-357-79c-551-190-945-642-1060-1217c-30-149-32-432-4-577c126-660,619-1159,1279-1292
		l112-23h9785h9785l111,22c658,134,1145,622,1276,1278c30,147,31,431,4,575c-112,586-520,1056-1076,1239c-52,17-140,41-195,53
		l-100,22l-9760,2C7502,20629,3092,20628,3070,20626z"/>
	<path class="st0" d="M3070,14226c-91-8-261-46-357-79c-551-190-945-642-1060-1217c-30-149-32-432-4-577c126-660,619-1159,1279-1292
		l112-23h9785h9785l111,22c658,134,1145,622,1276,1278c30,147,31,431,4,575c-112,586-520,1056-1076,1239c-52,17-140,41-195,53
		l-100,22l-9760,2C7502,14229,3092,14228,3070,14226z"/>
	<path class="st0" d="M3070,7826c-91-8-261-46-357-79c-551-190-945-642-1060-1217c-30-149-32-432-4-577c126-660,619-1159,1279-1292
		l112-23h9785h9785l111,22c658,134,1145,622,1276,1278c30,147,31,431,4,575c-112,586-520,1056-1076,1239c-52,17-140,41-195,53
		l-100,22l-9760,2C7502,7829,3092,7828,3070,7826z"/>
</g>
</svg>
