<?xml version="1.0" encoding="utf-8"?>
<!-- Generator: Adobe Illustrator 23.0.0, SVG Export Plug-In . SVG Version: 6.00 Build 0)  -->
<svg version="1.1" id="Слой_1" xmlns="http://www.w3.org/2000/svg" xmlns:xlink="http://www.w3.org/1999/xlink" x="0px" y="0px"
	 viewBox="0 0 1972.3 647" style="enable-background:new 0 0 1972.3 647;" xml:space="preserve">
<style type="text/css">
	.st0{fill:#FFFFFF;}
	.st1{fill:#007FB0;}
	.st2{fill:#FFFFFF;stroke:#FFFFFF;stroke-miterlimit:10;}
	.st3{fill:#BE1622;}
</style>
<polygon class="st0" points="10.7,414.3 10.7,232 344.9,232 348.9,484.2 272.8,572.8 179.2,636.3 30,524.3 10.2,466.6 "/>
<g transform="translate(0.000000,648.000000) scale(0.100000,-0.100000)">
	<path class="st1" d="M1750,5790v-690h45h45v690v690h-45h-45V5790z"/>
	<path class="st1" d="M1100,6342c-19-9-36-17-38-18c-3-2,516-1262,523-1272c1-1,19,5,39,13c28,12,37,21,33,33
		c-4,16-517,1256-520,1258C1136,6357,1119,6350,1100,6342z"/>
	<path class="st1" d="M2427,6298c-12-29-130-314-263-633l-241-580l36-17c20-9,39-14,43-10c8,8,529,1265,526,1267c-18,9-61,25-69,25
		C2453,6350,2439,6326,2427,6298z"/>
	<path class="st1" d="M507,5942l-27-28l488-487l488-488l29,31l29,31l-484,484c-267,267-487,485-491,485C536,5970,522,5957,507,5942z
		"/>
	<path class="st1" d="M2560,5485l-484-484l29-31l29-31l488,488l488,487l-27,28c-15,15-29,28-32,28C3047,5970,2827,5752,2560,5485z"
		/>
	<path class="st1" d="M114,5355c-8-21-14-38-12-40s1126-469,1256-522c12-5,48,64,38,74c-5,6-1215,508-1247,518
		C134,5390,126,5384,114,5355z"/>
	<path class="st1" d="M2818,5131c-340-142-620-260-624-264c-5-5,11-60,22-75c2-3,1264,516,1272,523s-29,75-40,74
		C3441,5388,3157,5272,2818,5131z"/>
	<path class="st2" d="M14570,4730c-75-25-131-87-154-169c-10-35-19-118-23-196l-6-135h-89h-88v-90v-90h90h90v-345v-345h110h110v345
		v345h100h100v90v90h-100h-100v123c0,103,3,127,20,154c32,54,61,66,139,61l68-5l7,85c6,65,4,87-6,93
		C14812,4758,14628,4750,14570,4730z"/>
	<path class="st2" d="M6853,4649c-83-24-112-135-52-203c75-86,224-44,236,65c7,62-16,105-70,130C6921,4661,6901,4663,6853,4649z"/>
	<path class="st2" d="M10753,4649c-83-24-112-135-52-203c75-86,224-44,236,65c7,62-16,105-70,130C10821,4661,10801,4663,10753,4649z
		"/>
	<path class="st1" d="M2,3223l3-1418l28-90c34-109,97-238,171-348c247-372,801-837,1434-1208c74-43,145-79,157-79
		c50,0,578,334,819,518c187,144,341,279,487,429c270,278,419,521,470,768c18,85,19,163,19,1468v1377h-760c-896,0-821,10-955-122
		c-44-43-81-78-82-78s-37,35-80,79c-130,130-55,121-954,121H0L2,3223z M1587,4103c98-46,113-207,23-261l-28-18l29-13
		c45-20,72-66,77-131c8-104-44-170-151-192c-171-36-303,129-216,271c10,17,32,39,49,49l30,19l-29,21c-16,12-37,41-46,65
		C1271,4054,1437,4175,1587,4103z M2056,4115c80-23,124-82,124-162c-1-89-27-126-197-287l-102-96h155h154v-40v-40h-205h-205v43
		c0,41,4,46,146,187c80,80,152,157,160,172c24,46,18,96-15,129c-25,24-38,29-78,29c-53,0-86-21-103-66c-8-20-16-24-50-24
		s-40,3-40,20c0,56,65,122,136,139C1992,4132,2001,4132,2056,4115z M2526,4119c59-15,109-62,124-118c10-37,9-51-5-88
		c-9-24-30-53-46-65l-29-21l30-19c17-10,39-32,49-49c87-142-45-307-216-271c-107,22-159,88-151,192c5,65,32,111,77,131l29,13l-28,18
		c-38,22-60,67-60,118c0,79,44,136,120,158C2467,4132,2474,4132,2526,4119z M1148,3803l2-313h-40h-40v261v261l-55-47l-56-47l-18,23
		c-10,13-20,28-21,33s35,40,81,78c68,55,90,68,114,66l30-3L1148,3803z M2637,2823l834-478l-4-265c-3-257-4-267-30-343
		c-125-362-470-744-1037-1149c-215-153-576-378-607-378c-16,0-277,159-442,270C768,870,365,1265,203,1606c-74,156-84,214-90,490
		l-6,241l839,481c461,265,843,482,848,482S2179,3085,2637,2823z"/>
	<path class="st1" d="M1425,4025c-19-18-25-35-25-67c1-64,36-98,100-98c77,0,121,110,65,165C1531,4060,1459,4060,1425,4025z"/>
	<path class="st1" d="M1433,3770c-41-24-53-48-53-103c0-95,85-140,178-94c31,15,52,57,52,104C1610,3767,1512,3819,1433,3770z"/>
	<path class="st1" d="M2405,4025c-56-55-12-165,65-165c64,0,99,34,100,98c0,60-32,92-95,92C2440,4050,2423,4044,2405,4025z"/>
	<path class="st1" d="M2413,3770c-39-24-53-48-53-95c0-64,30-101,98-120c32-9,88,12,112,42c25,32,27,108,4,141
		C2538,3789,2467,3804,2413,3770z"/>
	<path class="st3" d="M1745,2820l-49-50l17-28c10-15,32-51,49-81c27-46,32-51,41-35c5,11,26,46,47,79l38,61l-47,52l-46,53L1745,2820
		z"/>
	<path class="st3" d="M1483,2669c-57-28-99-88-126-178l-22-73l-44,6c-108,15-229-33-267-106c-42-80-5-193,80-243
		c42-24,301-105,338-105c9,0,19,9,23,19c12,38,131,138,190,160c31,12,62,21,69,21c17,0,30,295,15,360c-14,62-53,115-103,140
		C1582,2696,1536,2695,1483,2669z"/>
	<path class="st3" d="M1948,2670c-44-24-76-66-95-128c-11-37-13-81-7-209l7-161l28-6c61-12,141-61,195-119c30-32,54-62,54-68
		c0-15,29-10,170,30c176,49,207,66,254,135c38,57,37,138-3,193c-16,22-45,47-65,57c-49,23-138,37-192,29c-41-5-43-4-49,23
		c-24,112-70,185-138,219C2047,2695,1998,2696,1948,2670z"/>
	<path class="st3" d="M825,2153c-27-14-51-26-52-28c-2-1,40-85,61-122c1-1,33,7,71,18c38,10,80,19,94,19c23,0,22,2-15,43
		c-22,23-49,54-61,70C897,2186,889,2186,825,2153z"/>
	<path class="st3" d="M2629,2111l-56-67l76-16c42-9,82-17,90-19c8-3,27,20,47,56l33,60l-52,27c-29,15-59,27-67,27
		S2660,2148,2629,2111z"/>
	<path class="st3" d="M1733,2090c-64-13-116-44-167-101c-111-124-98-315,29-427c119-105,317-95,422,21c56,63,78,120,77,207
		c0,94-28,163-91,221C1929,2079,1829,2108,1733,2090z"/>
	<path class="st3" d="M977,1956c-167-62-152-259,27-374c23-14,43-27,44-28c2-2-6-29-18-61c-46-119-27-234,48-291c30-23,46-27,97-27
		c100,0,140,31,254,199c63,93,91,143,85,151c-74,96-104,174-104,270v62l-146,53C1105,1968,1038,1979,977,1956z"/>
	<path class="st3" d="M2380,1929c-63-22-134-47-157-56l-43-15v-58c0-77-33-179-75-235c-19-25-35-49-34-53c0-4,41-68,92-142
		c73-106,102-141,140-164c97-59,194-43,249,43c28,44,29,51,26,131c-3,60-11,98-25,128l-21,42l44,26c60,36,131,117,145,167
		c33,122-56,227-191,227C2511,1970,2443,1951,2380,1929z"/>
	<path class="st3" d="M1524,1332c-122-157-137-187-132-271c4-78,28-119,85-146c79-38,184-14,272,62l42,35l40-31
		c101-81,201-105,282-66c55,26,81,68,85,141c6,83-15,127-129,272c-51,64-93,118-94,119c-1,2-25-6-53-17c-71-27-184-27-254,0
		c-29,11-53,20-53,20C1615,1449,1574,1397,1524,1332z"/>
	<path class="st3" d="M1225,1093c-43-19-80-35-82-37c-3-3,17-129,21-133c1-2,32,3,67,10l64,13l7,89c5,49,7,89,5,90
		C1306,1126,1269,1111,1225,1093z"/>
	<path class="st3" d="M2281,1088c4-24,8-66,9-93v-51l67-11c37-7,68-11,69-10c2,1,7,32,11,68l9,67l-80,33c-45,19-84,35-87,37
		C2275,1130,2276,1112,2281,1088z"/>
	<path class="st2" d="M4500,4208c0-479,5-522,61-628c121-228,449-317,704-191c90,45,146,97,199,184c62,104,66,143,66,631v436h-110
		h-110v-398c0-491-7-538-92-619c-132-127-376-91-458,67c-34,67-40,143-40,552v398h-110h-110V4208z"/>
	<path class="st2" d="M11228,4358l-3-123l-87-3l-88-3v-89v-90h89h90l3-277c3-267,4-280,26-320c46-88,167-127,323-105
		c44,7,85,14,90,17c5,4,9,47,9,96c0,84-1,89-18,80c-37-20-116-24-155-7c-61,25-67,51-67,301v215h120h120v90v90h-120h-120v125v125
		h-105h-104L11228,4358z"/>
	<path class="st2" d="M6137,4236c-50-18-103-60-130-102c-12-18-25-34-29-34c-5,0-8,29-8,65v65h-100h-100v-435v-435h110h110v274v274
		l28,53c37,71,93,102,173,97c71-5,105-27,132-86c21-44,22-65,25-329l3-283h105h105l-3,338l-3,337l-28,57c-30,61-65,96-131,130
		C6344,4250,6195,4258,6137,4236z"/>
	<path class="st2" d="M8443,4235c-222-62-343-234-331-470c5-84,10-104,41-169c92-185,303-286,513-244c44,8,101,26,127,38
		c46,22,147,104,147,120c0,4-33,33-74,63l-74,56l-27-28c-143-151-393-98-439,92l-6,27h330h330v83c0,197-83,348-227,414
		c-47,22-75,27-158,30C8528,4249,8478,4245,8443,4235z M8648,4075c20-9,48-26,61-38c30-27,60-93,61-129v-28h-225c-124,0-225,4-225,9
		c0,23,33,98,57,129c14,19,44,43,67,53C8495,4094,8596,4096,8648,4075z"/>
	<path class="st2" d="M9555,4238c-46-17-107-64-135-105l-25-37l-3,67l-3,67h-104h-105v-435v-435h105h105v241c0,286,5,314,69,380
		c62,64,149,85,239,60l32-10v104c0,85-3,104-16,109C9689,4253,9588,4250,9555,4238z"/>
	<path class="st2" d="M10058,4235c-134-37-218-139-218-264c0-137,86-211,295-251c118-24,175-61,175-115c0-88-146-134-251-80
		c-17,9-47,31-68,50l-37,34l-70-70l-69-70l35-31c144-125,451-127,597-4c50,42,73,101,73,184c0,84-10,116-53,160
		c-46,48-107,76-230,106s-165,48-176,79c-33,88,105,150,214,97c25-12,53-32,63-45l17-22l72,65l73,66l-27,29c-34,35-91,66-158,83
		C10253,4253,10120,4252,10058,4235z"/>
	<path class="st2" d="M13525,4236c-130-31-233-114-292-234c-36-72-38-82-41-186c-5-129,13-194,76-285c84-123,222-187,397-185
		c197,3,342,89,417,249c59,126,60,279,3,402c-50,111-167,204-296,238C13724,4253,13594,4253,13525,4236z M13732,4050
		c101-29,178-134,178-245c0-160-103-269-255-268c-139,0-241,97-253,239C13387,3965,13550,4100,13732,4050z"/>
	<path class="st2" d="M6800,3795v-435h105h105v435v435h-105h-105V3795z"/>
	<path class="st2" d="M7142,4222c1-6,81-202,177-436l175-427l115,3l114,3l164,414c89,228,165,423,169,433c5,17-3,18-103,18h-109
		l-114-297c-62-164-116-301-119-305s-58,129-121,295l-115,302l-119,3C7188,4229,7140,4227,7142,4222z"/>
	<path class="st2" d="M10700,3795v-435h105h105v435v435h-105h-105V3795z"/>
	<path class="st2" d="M11773,4218c3-7,87-205,186-439l181-427l-36-86c-40-94-73-131-130-142c-34-6-94-1-140,12c-19,5-21-1-32-87
		c-7-50-11-94-8-96c11-12,88-23,157-23c142,0,232,48,291,157c22,40,448,1123,448,1138c0,3-49,5-109,5h-109l-14-37
		c-9-21-57-156-109-300c-52-145-96-263-99-263s-59,135-124,300l-120,300h-119C11796,4230,11769,4227,11773,4218z"/>
	<path class="st2" d="M10120,2305v-685h105h105v685v685h-105h-105V2305z"/>
	<path class="st2" d="M16720,2305v-685h104h104l4,273c3,242,5,276,22,307c42,80,93,113,178,114c70,1,103-20,138-90
		c25-48,25-54,28-326l4-278h104h105l-3,333c-3,322-4,334-26,382c-52,114-144,169-282,170c-74,0-93-4-143-29c-38-18-68-42-85-67
		c-15-21-30-38-34-39c-5,0-8,140-8,310v310h-105h-105V2305z"/>
	<path class="st2" d="M4945,2915c-231-50-395-196-471-420c-35-104-44-290-20-403c33-157,128-300,258-388c107-73,208-105,359-111
		c201-9,338,37,458,154l65,62l-25,19c-13,10-55,40-92,66l-68,48l-50-47c-27-25-75-58-107-73c-49-23-70-27-152-27c-86,0-101,3-162,32
		c-155,73-247,212-264,396c-8,93,7,173,50,264c45,94,106,155,204,201c73,35,82,37,177,37c116,0,166-18,237-83l43-40l89,66l89,66
		l-59,54c-65,59-150,104-239,127C5193,2933,5029,2934,4945,2915z"/>
	<path class="st2" d="M17769,2887c-68-45-72-148-8-201c25-22,41-26,90-26c53,0,63,3,95,33c64,58,55,152-19,197
		C17882,2918,17812,2916,17769,2887z"/>
	<path class="st2" d="M11150,2260v-640h380h380v100v100h-270h-270v540v540h-110h-110V2260z"/>
	<path class="st2" d="M7840,2615v-125h-90h-90v-90v-89l88-3l87-3l5-270c6-328,14-356,115-408c50-25,195-35,278-18l57,12v90
		c0,89,0,90-22,82c-13-4-54-8-91-8c-62,0-71,3-92,27c-32,37-37,80-33,303l3,190l118,3l117,3v89v90h-120h-120v125v125h-105h-105V2615
		z"/>
	<path class="st2" d="M6023,2495c-234-51-381-268-346-510c19-135,99-256,212-323c130-77,332-82,473-13c55,27,140,100,136,117
		c-2,7-34,37-72,66l-68,53l-36-34c-86-81-208-104-307-57c-27,13-60,34-72,47c-26,28-53,89-53,119c0,20,5,20,332,20h331l-6,93
		c-16,240-123,385-315,426C6164,2513,6101,2512,6023,2495z M6185,2339c79-22,145-98,145-169v-30h-220c-220,0-220,0-220,22
		c0,31,35,100,68,131C6011,2343,6101,2362,6185,2339z"/>
	<path class="st2" d="M7120,2497c-57-16-109-55-146-109l-29-41l-3,71l-3,72h-99h-100v-435v-435h104h104l4,273c3,242,5,276,22,307
		c42,80,93,113,178,114c70,1,103-20,138-90c25-48,25-54,28-326l4-278h104h104v300c0,373-10,429-92,507
		C7368,2495,7223,2527,7120,2497z"/>
	<path class="st2" d="M8885,2503c-81-18-147-63-187-128l-18-30v73v72h-110h-110v-435v-435h110h110v248c0,141,5,263,11,285
		c30,109,156,171,292,144l37-8v104v105l-31,6C8955,2511,8917,2510,8885,2503z"/>
	<path class="st2" d="M9415,2500c-97-18-198-64-239-109c-20-22-20-22,33-75l53-53l54,32c141,85,313,66,364-40c11-23,20-53,20-67v-25
		l-132-7c-266-13-391-64-447-180c-28-57-29-171-2-224c26-51,76-97,136-124c42-19,67-23,155-23c126,0,174,18,244,91l46,48v-62v-62h96
		h95l-3,323c-3,306-5,325-26,379c-29,71-89,128-166,157C9630,2504,9492,2514,9415,2500z M9685,1953c-12-100-38-141-110-174
		c-50-23-154-25-195-4c-63,33-89,104-54,153c34,48,144,80,283,81l83,1L9685,1953z"/>
	<path class="st2" d="M12316,2495c-80-17-156-51-206-94l-35-30l56-56l55-56l52,35c156,104,382,48,382-95v-36l-134-7
		c-140-7-255-30-323-65c-62-31-118-99-133-160c-47-196,102-344,332-329c94,6,166,37,218,94l40,44v-60v-60h96h95l-3,333l-3,332
		l-28,57c-33,68-85,112-164,139C12538,2508,12406,2514,12316,2495z M12607,1945c-9-123-78-184-205-185c-106,0-166,41-166,116
		c0,81,111,131,293,133l84,1L12607,1945z"/>
	<path class="st2" d="M13455,2504c-86-22-147-64-187-129l-18-30v73v72h-105h-105v-435v-435h110h110v270c0,290,4,316,53,368
		c69,75,193,78,255,8c45-51,52-106,52-391v-255h105h105v312c0,381-4,403-89,488c-39,39-70,60-101,69
		C13591,2504,13487,2512,13455,2504z"/>
	<path class="st2" d="M14374,2496c-176-40-309-173-345-344c-15-72-7-203,17-262c66-169,214-275,399-287c100-7,175,8,264,53
		c105,52,105,52,21,138l-72,74l-20-20c-59-59-169-74-253-34c-135,63-191,225-123,360c28,56,55,84,108,111c93,46,165,41,243-19l45-34
		l71,72c39,39,71,74,71,78c0,15-103,80-157,99C14567,2507,14452,2514,14374,2496z"/>
	<path class="st2" d="M15203,2499c-76-13-155-45-207-85c-25-19-46-38-46-42s24-31,53-59l52-52l44,30c93,62,221,75,308,31
		c49-25,74-62,81-117l4-42l-132-6c-278-15-416-79-461-214c-7-21-9-65-7-105c4-56,11-78,35-111c110-158,402-172,528-25l35,42v-62v-62
		h96h95l-3,328c-3,317-4,329-26,377C15585,2471,15420,2535,15203,2499z M15477,1952c-10-118-68-179-176-189c-78-7-124,2-160,33
		c-56,47-49,125,15,164c46,29,143,48,243,49l84,1L15477,1952z"/>
	<path class="st2" d="M16102,2495c-151-33-233-125-234-260c-1-150,60-206,272-255c148-35,190-61,190-120c0-61-56-100-145-100
		c-68,0-110,17-164,65l-41,37l-67-63c-38-35-68-68-68-73c0-19,99-86,150-102c70-22,221-29,297-14c174,34,274,152,254,302
		c-9,62-24,94-68,134c-48,46-80,59-219,93c-143,36-173,53-177,103c-3,29,2,40,28,61c62,53,170,43,240-23l31-29l62,56
		c34,31,66,60,71,64c15,13-42,66-99,93C16321,2509,16215,2519,16102,2495z"/>
	<path class="st2" d="M18596,2499c-55-13-99-42-146-97l-40-47v68v67h-105h-105v-435v-435h104h105l3,263c3,250,4,264,26,305
		c12,23,41,55,63,72c44,31,131,54,173,45c14-3,37-7,51-10l25-5v104v104l-31,6C18679,2512,18645,2510,18596,2499z"/>
	<path class="st2" d="M19220,2501c-203-38-342-181-372-382c-21-140,22-278,117-378c176-185,505-190,681-10l36,37l-76,57l-75,57
		l-42-35c-61-53-106-71-184-75c-61-3-77,0-125,25c-62,32-107,88-117,146l-6,37h333h333l-6,98c-16,263-152,415-382,427
		C19297,2507,19245,2505,19220,2501z M19371,2335c61-22,107-69,124-129c8-27,15-53,15-58c0-4-101-8-225-8c-256,0-244-5-201,86
		C19133,2331,19253,2376,19371,2335z"/>
	<path class="st2" d="M17740,2055v-435h110h110v435v435h-110h-110V2055z"/>
	<path class="st2" d="M5597,1140c-154-39-273-155-313-304c-16-60-18-173-3-235c48-209,238-342,469-328c108,6,185,35,247,92l48,44
		l-70,64l-70,65l-34-30c-45-40-75-50-146-50c-93-1-165,44-211,132c-26,49-26,190-1,241c22,44,71,95,110,116c71,36,189,25,247-24
		l32-26l66,67l67,67l-39,34c-62,54-134,77-256,81C5682,1148,5618,1145,5597,1140z"/>
	<path class="st2" d="M8731,1134c-123-33-218-113-274-232c-31-64-32-73-32-187c0-100,4-129,23-175c63-158,205-255,387-267
		c131-9,234,23,317,96l42,38l-70,66l-69,66l-25-24c-44-40-90-57-155-57c-74,0-126,23-178,81c-44,49-60,104-55,197c3,58,9,80,33,120
		c73,118,233,149,344,66l33-25l66,66l66,66l-24,26C9085,1135,8877,1173,8731,1134z"/>
	<path class="st2" d="M4422,828c5-357,8-369,97-459c46-46,68-59,129-78c187-60,395,14,465,167c21,45,22,63,25,360l3,312h-100h-101
		V853c0-324-5-345-81-384c-79-40-169-14-214,62c-18,31-20,56-23,317l-4,282h-100h-100L4422,828z"/>
	<path class="st2" d="M6130,710V290h265h265v90v90h-160h-160v330v330h-105h-105V710z"/>
	<path class="st2" d="M6877,881c-55-18-137-66-137-80c0-4,22-29,49-55l49-49l29,21c68,48,173,48,208-1c29-41,20-57-32-57
		c-132,0-263-44-304-102c-27-37-36-112-20-161c15-45,68-93,118-106c87-24,186-8,232,38l21,21v-30v-30h91h91l-4,217
		c-3,182-6,225-21,258c-40,90-104,127-227,132C6956,899,6920,895,6877,881z M7090,514c0-46-14-70-50-89c-67-35-150-9-150,45
		c0,47,60,77,158,79C7090,550,7090,550,7090,514z"/>
	<path class="st2" d="M7717,886c-41-15-64-30-89-61c-17-20-18-19-18,18v37h-95h-95V585V290h95h95v164c0,90,3,177,6,195
		c18,87,125,121,170,54c16-24,19-55,22-220l4-193h95h94l-3,228c-3,212-4,230-25,268C7922,882,7819,922,7717,886z"/>
	<path class="st2" d="M10224,886c-23-7-58-26-78-41l-36-27v31v31h-95h-95V445V10h100h100v172v171l23-21c91-85,266-68,357,35
		c53,60,75,128,75,228c-1,93-29,167-86,224C10424,885,10308,914,10224,886z M10321,717c66-44,86-124,50-204c-23-50-62-73-125-73
		c-74,0-136,67-136,147c0,81,66,153,140,153C10272,740,10301,731,10321,717z"/>
	<path class="st2" d="M10994,889c-18-5-48-27-68-49l-36-40v40v40h-95h-95V585V290h100h100v173c0,155,2,175,20,205
		c24,39,80,65,127,60c30-4,33-1,39,27c3,16,4,55,2,85c-3,53-4,55-33,57C11039,898,11011,894,10994,889z"/>
	<path class="st2" d="M12012,882c-118-43-172-150-126-248c24-51,56-71,165-104c87-27,100-34,105-57c9-33-24-63-67-63
		c-37,0-97,25-125,51l-21,20l-52-58c-28-32-51-60-51-63s15-15,34-27c59-38,126-56,216-57c72-1,94,3,141,25c89,42,132,125,108,211
		c-20,76-63,106-224,155c-50,15-61,22-63,42c-8,54,81,69,154,27l42-24l53,55c61,60,62,57-29,100C12199,902,12086,908,12012,882z"/>
	<path class="st2" d="M9296,588l125-292l-26-52c-29-59-60-77-121-72l-39,3l-9-74c-6-58-5-75,5-83c26-17,180-5,223,18
		c72,37,91,74,242,461c79,202,144,371,144,376c0,4-45,7-100,7h-99l-41-132c-23-73-49-157-58-185c-8-29-18-53-21-53s-35,83-70,185
		l-63,185h-108h-108L9296,588z"/>
	<path class="st2" d="M11162,663c3-193,6-223,24-263c62-136,234-166,347-62l27,26v-37v-37h95h95v295v295h-100h-100V700
		c0-142-3-187-15-210c-18-35-43-50-84-50c-82,0-91,24-91,255v185h-101h-101L11162,663z"/>
</g>
</svg>
